<?xml version="1.0" encoding="utf-8"?>
<!-- Generator: Adobe Illustrator 25.3.1, SVG Export Plug-In . SVG Version: 6.00 Build 0)  -->
<svg version="1.1" id="Layer_1" xmlns:vectornator="http://vectornator.io"
	 xmlns="http://www.w3.org/2000/svg" xmlns:xlink="http://www.w3.org/1999/xlink" x="0px" y="0px" viewBox="0 0 1920 1080"
	 style="enable-background:new 0 0 1920 1080;" xml:space="preserve">
<style type="text/css">
	.st0{fill-rule:evenodd;clip-rule:evenodd;}
</style>
<g id="Untitled" vectornator:layerName="Untitled" xmlns:vectornator="http://vectornator.io">
	<g xmlns:vectornator="http://vectornator.io">
		<g vectornator:blendMode="darken" xmlns:vectornator="http://vectornator.io">
			<path xmlns:vectornator="http://vectornator.io" class="st0" d="M554.1,374c0-46.4,37.2-84,83-84s83,37.6,83,84
				c0,46.4-37.2,84-83,84S554.1,420.4,554.1,374z"/>
			<path xmlns:vectornator="http://vectornator.io" class="st0" d="M881.7,562.1L1017,374H746.5L881.7,562.1z"/>
			<path xmlns:vectornator="http://vectornator.io" class="st0" d="M755.4,374h136.7l0,0v299.4l0,0H755.4l0,0V374L755.4,374z"/>
			<path xmlns:vectornator="http://vectornator.io" class="st0" d="M755.4,668.8c0-66.9,61.2-121.2,136.7-121.2
				s136.7,54.3,136.7,121.2S967.7,790,892.1,790S755.4,735.7,755.4,668.8z"/>
			<g transform="matrix(0.284147 0 0 0.285721 327.654 331.413)">
				
					<image style="overflow:visible;enable-background:new    ;" width="299" height="434" id="Image" xlink:href="94F491A6E9B1C0B3.png"  xmlns:vectornator="http://vectornator.io" transform="matrix(1.0343 0 0 1.1058 1056.6105 300.0743)">
				</image>
			</g>
		</g>
		<path vectornator:blendMode="darken" xmlns:vectornator="http://vectornator.io" class="st0" d="M1040.8,574.9
			c0-34.7,25.5-62.9,56.9-62.9c31.4,0,56.9,28.1,56.9,62.9s-25.5,62.9-56.9,62.9C1066.3,637.8,1040.8,609.6,1040.8,574.9z"/>
	</g>
</g>
</svg>
